<svg xmlns="http://www.w3.org/2000/svg" viewBox="0 0 32 32" fill="none">
  <rect width="32" height="32" rx="6" fill="#EC4899"/>
  <path d="M16 8c-2.5 0-4.5 2-4.5 4.5 0 1.5 1 2.8 2.5 3.5v6c0 1.1.9 2 2 2s2-.9 2-2v-6c1.5-.7 2.5-2 2.5-3.5C20.5 10 18.5 8 16 8z" fill="white"/>
  <circle cx="16" cy="12.5" r="2" fill="#EC4899"/>
  <path d="M8 24c0-1.1.9-2 2-2h12c1.1 0 2 .9 2 2v2H8v-2z" fill="white"/>
  <circle cx="12" cy="18" r="1.5" fill="#F9A8D4"/>
  <circle cx="20" cy="18" r="1.5" fill="#F9A8D4"/>
  <circle cx="10" cy="14" r="1" fill="#F9A8D4"/>
  <circle cx="22" cy="14" r="1" fill="#F9A8D4"/>
</svg>